<?xml version="1.0" encoding="utf-8"?>
<!-- Generator: Adobe Illustrator 25.0.0, SVG Export Plug-In . SVG Version: 6.00 Build 0)  -->
<svg version="1.1" id="Layer_1" xmlns="http://www.w3.org/2000/svg" xmlns:xlink="http://www.w3.org/1999/xlink" x="0px" y="0px"
	 viewBox="0 0 1024 1024" style="enable-background:new 0 0 1024 1024;" xml:space="preserve">
<style type="text/css">
	.st0{display:none;fill:#1F1F29;}
	.st1{fill:#B7F8D8;}
	.st2{fill:#63518F;}
	.st3{fill:#7182DE;}
	.st4{fill:#F47CEA;}
	.st5{fill:#FFFFFF;}
</style>
<rect x="-1.43" class="st0" width="1026.86" height="1026.86"/>
<g>
	<path class="st1" d="M93.84,234.97c1.37-2.37,1.66-5.56-0.36-7.74c-0.46-0.5-1.04-0.94-1.67-1.31c-0.29-0.28-0.61-0.53-0.98-0.75
		c-0.08-0.05-0.15-0.09-0.23-0.14c-2.45-1.47-5.25-1.7-7.72-0.1c-2.51,1.62-3.26,4.13-3.1,6.99c0.01,0.09,0.01,0.18,0.02,0.27
		c0.09,1.62,1.59,3.73,2.91,4.57c0.63,0.4,1.25,0.66,1.89,0.85C87.75,238.93,92.03,238.11,93.84,234.97z"/>
	<path class="st2" d="M205.92,138.32c-1.25-2.7-4.93-5.01-8-4.13c-1.69,0.49-2.85,1.04-4.32,2c-3.77,2.46-2.88,8.79,0.51,11.02
		c0.77,0.51,1.63,1,2.52,1.26c4.12,1.19,7.72-0.53,9.54-4.39C207.02,142.31,206.72,140.05,205.92,138.32z"/>
	<path class="st1" d="M146.25,902.67c1.37-2.37,1.66-5.56-0.36-7.74c-0.46-0.5-1.04-0.94-1.67-1.31c-0.29-0.28-0.61-0.53-0.98-0.75
		c-0.08-0.05-0.15-0.09-0.23-0.14c-2.45-1.47-5.25-1.7-7.72-0.1c-2.51,1.62-3.26,4.13-3.1,6.99c0.01,0.09,0.01,0.18,0.02,0.27
		c0.09,1.62,1.59,3.73,2.91,4.57c0.63,0.4,1.25,0.66,1.89,0.85C140.17,906.63,144.44,905.81,146.25,902.67z"/>
	<path class="st3" d="M461.48,416.64c1.6,1.68,3.83,2.41,6.08,1.7c2.06-0.66,3.86-2.6,3.97-4.85c0.1-2.02-0.73-4.04-2.41-5.22
		c-1.9-1.33-5.25-1.48-6.97,0.32c-1.13,1.18-2.38,2.24-2.54,3.98c-0.08,0.8,0.13,1.61,0.47,2.34c0.35,0.72,0.85,1.31,1.5,1.78
		C461.15,416.29,461.12,416.28,461.48,416.64z"/>
	<path class="st2" d="M86.76,721.28c-1.25-2.7-4.93-5.01-8-4.13c-1.69,0.49-2.85,1.04-4.32,2c-3.77,2.46-2.88,8.79,0.51,11.02
		c0.77,0.51,1.63,1,2.52,1.26c4.12,1.19,7.72-0.53,9.54-4.39C87.86,725.27,87.56,723.01,86.76,721.28z"/>
	<path class="st4" d="M742.01,873.41c0,1.69,0.3,3.22,1.43,4.55c0.96,1.13,2.61,2.07,4.11,2.14c3.06,0.15,6.7-2.1,6.7-5.54
		c0-1.69-0.3-3.22-1.43-4.55c-0.96-1.13-2.61-2.07-4.11-2.14C745.64,867.72,742.01,869.97,742.01,873.41z"/>
	<path class="st1" d="M586.89,304.76c1.37-2.37,1.66-5.56-0.36-7.74c-0.46-0.5-1.04-0.94-1.67-1.31c-0.29-0.28-0.61-0.53-0.98-0.75
		c-0.08-0.05-0.15-0.09-0.23-0.14c-2.45-1.47-5.25-1.7-7.72-0.1c-2.51,1.62-3.26,4.13-3.1,6.99c0.01,0.09,0.01,0.18,0.02,0.27
		c0.09,1.62,1.59,3.73,2.91,4.57c0.63,0.4,1.25,0.66,1.89,0.85C580.81,308.72,585.09,307.9,586.89,304.76z"/>
	<path class="st3" d="M938.74,403.06c1.6,1.68,3.83,2.41,6.08,1.7c2.06-0.66,3.86-2.6,3.97-4.85c0.1-2.02-0.73-4.04-2.41-5.22
		c-1.9-1.33-5.25-1.48-6.97,0.32c-1.13,1.18-2.38,2.24-2.54,3.98c-0.08,0.8,0.13,1.61,0.47,2.34c0.35,0.72,0.85,1.31,1.5,1.78
		C938.42,402.71,938.39,402.7,938.74,403.06z"/>
	<path class="st2" d="M786.99,283.1c-1.25-2.7-4.93-5.01-8-4.13c-1.69,0.49-2.85,1.04-4.32,2c-3.77,2.46-2.88,8.79,0.51,11.02
		c0.77,0.51,1.63,1,2.52,1.26c4.12,1.19,7.72-0.53,9.54-4.39C788.09,287.09,787.79,284.83,786.99,283.1z"/>
	<path class="st4" d="M933.63,203.62c0,2.54,0.46,4.85,2.15,6.84c1.44,1.69,3.92,3.11,6.17,3.22c4.61,0.23,10.06-3.16,10.06-8.32
		c0-2.54-0.46-4.85-2.15-6.84c-1.44-1.69-3.92-3.11-6.17-3.22C939.09,195.07,933.63,198.45,933.63,203.62z"/>
	<path class="st1" d="M688.37,685.82c1.37-2.37,1.66-5.56-0.36-7.74c-0.46-0.5-1.04-0.94-1.67-1.31c-0.29-0.28-0.61-0.53-0.98-0.75
		c-0.08-0.05-0.15-0.09-0.23-0.14c-2.45-1.47-5.25-1.7-7.72-0.1c-2.51,1.62-3.26,4.13-3.1,6.99c0.01,0.09,0.01,0.18,0.02,0.27
		c0.09,1.62,1.59,3.73,2.91,4.57c0.63,0.4,1.25,0.66,1.89,0.85C682.29,689.78,686.56,688.95,688.37,685.82z"/>
	<path class="st2" d="M880.99,590.16c-1.25-2.7-4.93-5.01-8-4.13c-1.69,0.49-2.85,1.04-4.32,2c-3.77,2.46-2.88,8.79,0.51,11.02
		c0.77,0.51,1.63,1,2.52,1.26c4.12,1.19,7.72-0.53,9.54-4.39C882.09,594.15,881.79,591.89,880.99,590.16z"/>
	<path class="st4" d="M486.49,142.76c0,2.54,0.46,4.85,2.15,6.84c1.44,1.69,3.92,3.11,6.17,3.22c4.61,0.23,10.06-3.16,10.06-8.32
		c0-2.54-0.46-4.85-2.15-6.84c-1.44-1.69-3.92-3.11-6.17-3.22C491.95,134.21,486.49,137.6,486.49,142.76z"/>
	<path class="st1" d="M318.21,517.48c1.37-2.37,1.66-5.56-0.36-7.74c-0.46-0.5-1.04-0.94-1.67-1.31c-0.29-0.28-0.61-0.53-0.98-0.75
		c-0.08-0.05-0.15-0.09-0.23-0.14c-2.45-1.47-5.25-1.7-7.72-0.1c-2.51,1.62-3.26,4.13-3.1,6.99c0.01,0.09,0.01,0.18,0.02,0.27
		c0.09,1.62,1.59,3.73,2.91,4.57c0.63,0.4,1.25,0.66,1.89,0.85C312.12,521.44,316.4,520.62,318.21,517.48z"/>
	<path class="st3" d="M250.39,310.21c1.6,1.68,3.83,2.41,6.08,1.7c2.06-0.66,3.86-2.6,3.97-4.85c0.1-2.02-0.73-4.04-2.41-5.22
		c-1.9-1.33-5.25-1.48-6.97,0.32c-1.13,1.18-2.38,2.24-2.54,3.98c-0.08,0.8,0.13,1.61,0.47,2.34c0.35,0.72,0.85,1.31,1.5,1.78
		C250.06,309.86,250.03,309.85,250.39,310.21z"/>
	<path class="st3" d="M601.2,838.75c1.6,1.68,3.83,2.41,6.08,1.7c2.06-0.66,3.86-2.6,3.97-4.85c0.1-2.02-0.73-4.04-2.41-5.22
		c-1.9-1.33-5.25-1.48-6.97,0.32c-1.13,1.18-2.38,2.24-2.54,3.98c-0.08,0.8,0.13,1.61,0.47,2.34c0.35,0.72,0.85,1.31,1.5,1.78
		C600.88,838.41,600.85,838.39,601.2,838.75z"/>
	<path class="st4" d="M398.04,653.82c0,1.44,0.27,2.75,1.27,3.88c0.85,0.96,2.31,1.76,3.64,1.82c2.72,0.13,5.94-1.79,5.94-4.71
		c0-1.44-0.27-2.75-1.27-3.88c-0.85-0.96-2.31-1.76-3.64-1.82C401.27,648.98,398.04,650.9,398.04,653.82z"/>
	<polygon class="st5" points="139.45,414.46 130.52,443.69 102.7,452.63 130.11,461.56 139.45,490.8 148.79,461.16 176.81,452.63 
		148.38,443.29 	"/>
        <animate attributeName="opacity" values="1;0.4;1" dur="2s" repeatCount="indefinite" />
  
	<polygon class="st5" points="572.42,512.11 560.92,549.74 525.11,561.24 560.39,572.74 572.42,610.38 584.44,572.22 620.51,561.24 
		583.92,549.22 	"/>
        <animate attributeName="opacity" values="1;0.4;1" dur="4s" repeatCount="indefinite" />
  
	<polygon class="st5" points="754.05,414.46 748.66,432.11 731.87,437.5 748.42,442.89 754.05,460.54 759.69,442.64 776.61,437.5 
		759.45,431.86 	"/>
        <animate attributeName="opacity" values="1;0.4;1" dur="1s" repeatCount="indefinite" />

	<polygon class="st5" points="896.46,731.81 891,749.69 873.98,755.16 890.75,760.62 896.46,778.51 902.17,760.37 919.31,755.16 
		901.93,749.44 	"/>
        <animate attributeName="opacity" values="1;0.4;1" dur="0.6s" repeatCount="indefinite" />
   
	<polygon class="st5" points="779.79,118.08 774.33,135.96 757.31,141.43 774.08,146.89 779.79,164.78 785.51,146.64 802.65,141.43 
		785.26,135.71 	"/>
        <animate attributeName="opacity" values="1;0.4;1" dur="2s" repeatCount="indefinite" />
   
	<polygon class="st5" points="425.2,823.84 419.91,841.12 403.47,846.41 419.67,851.69 425.2,868.97 430.72,851.45 447.28,846.41 
		430.48,840.88 	"/>
        <animate attributeName="opacity" values="1;0.4;1" dur="1s" repeatCount="indefinite" />
   
	<polygon class="st5" points="363.19,208.29 357.54,226.8 339.93,232.45 357.28,238.11 363.19,256.62 369.1,237.85 386.84,232.45 
		368.85,226.54 	"/>
        <animate attributeName="opacity" values="1;0.4;1" dur="3s" repeatCount="indefinite" />
   
	<polygon class="st5" points="220.43,674.68 217.09,685.62 206.68,688.96 216.94,692.31 220.43,703.25 223.93,692.16 234.41,688.96 
		223.78,685.47 	"/>
        <animate attributeName="opacity" values="1;0.4;1" dur="5s" repeatCount="indefinite" />
    
</g>
</svg>
