<svg xmlns="http://www.w3.org/2000/svg" width="64" height="64" viewBox="0 0 64 64" fill="none">
    <polygon points="32,4 36,24 56,24 40,36 44,56 32,44 20,56 24,36 8,24 28,24" fill="#fff" fill-opacity="0.8">
        <animate attributeName="opacity" values="1;0.4;1" dur="3s" repeatCount="indefinite" />
    </polygon>
    <polygon points="32,4 36,24 56,24 40,36 44,56 32,44 20,56 24,36 8,24 28,24" fill="#fff" fill-opacity="0.8" transform="translate(25, -32) scale(0.75)">
        <animate attributeName="opacity" values="1;0.4;1" dur="4s" repeatCount="indefinite" />
    </polygon>
    <polygon points="32,4 36,24 56,24 40,36 44,56 32,44 20,56 24,36 8,24 28,24" fill="#fff" fill-opacity="0.8" transform="translate(-12, -19) scale(0.75)">
        <animate attributeName="opacity" values="1;0.4;1" dur="2s" repeatCount="indefinite" />
    </polygon>
</svg>
